<?xml version="1.0" encoding="UTF-8"?>
<svg xmlns="http://www.w3.org/2000/svg" xmlns:xlink="http://www.w3.org/1999/xlink" width="520pt" height="277pt" viewBox="0 0 520 277" version="1.1">
<defs>
<filter id="alpha" filterUnits="objectBoundingBox" x="0%" y="0%" width="100%" height="100%">
  <feColorMatrix type="matrix" in="SourceGraphic" values="0 0 0 0 1 0 0 0 0 1 0 0 0 0 1 0 0 0 1 0"/>
</filter>
<mask id="mask0">
  <g filter="url(#alpha)">
<rect x="0" y="0" width="520" height="277" style="fill:rgb(0%,0%,0%);fill-opacity:0.101961;stroke:none;"/>
  </g>
</mask>
<clipPath id="clip1">
  <rect x="0" y="0" width="520" height="277"/>
</clipPath>
<g id="surface5" clip-path="url(#clip1)">
<path style=" stroke:none;fill-rule:nonzero;fill:rgb(5.098039%,56.470588%,98.823529%);fill-opacity:1;" d="M 480.277344 219.105469 C 479.699219 220.355469 479.121094 221.589844 478.542969 222.804688 C 477.644531 224.695312 476.757812 226.546875 475.882812 228.363281 C 475.492188 229.171875 475.101562 229.960938 474.722656 230.75 C 470.425781 239.535156 466.417969 247.304688 463.011719 253.695312 C 456.714844 265.488281 444.492188 272.90625 431.136719 273.046875 L 355.382812 273.871094 L 354.585938 273.871094 L 348.089844 273.941406 L 342.535156 274 L 325.503906 274.183594 L 324.8125 274.183594 L 316.140625 274.28125 L 315.875 274.28125 L 262.425781 274.859375 L 214.71875 275.359375 L 209.167969 275.421875 L 174.703125 275.796875 L 174.660156 275.796875 L 152.308594 276.035156 L 152.070312 276.035156 L 81.386719 276.800781 L 60.242188 277.03125 C 55.730469 277.082031 51.238281 276.4375 46.917969 275.121094 C 39.40625 272.847656 32.65625 268.570312 27.394531 262.746094 C 18.3125 252.730469 11.695312 241.046875 7.246094 228.363281 C 6.605469 226.535156 6.007812 224.683594 5.449219 222.804688 C -9.941406 170.730469 8.820312 103.546875 42.589844 58.585938 C 44.003906 56.703125 45.441406 54.871094 46.90625 53.085938 L 46.941406 53.046875 C 57.324219 40.285156 68.96875 29.625 81.371094 22.046875 C 103.351562 8.589844 127.703125 4.800781 151.652344 16.09375 C 171.917969 25.65625 190.839844 30.148438 209.183594 31.371094 C 211.035156 31.488281 212.890625 31.578125 214.734375 31.636719 C 256.808594 32.960938 296.238281 17.785156 342.546875 7.988281 C 344.390625 7.601562 346.238281 7.214844 348.101562 6.851562 C 381.132812 0.269531 417.777344 -3.199219 461.355469 4.09375 C 465.882812 4.835938 470.351562 5.90625 474.722656 7.296875 C 476.644531 7.914062 478.496094 8.582031 480.277344 9.296875 C 501.078125 17.765625 512.421875 33.414062 517.242188 53.023438 C 517.699219 54.84375 518.09375 56.695312 518.425781 58.578125 C 526.972656 105.75 501.941406 172.660156 480.277344 219.105469 Z M 480.277344 219.105469 "/>
</g>
<mask id="mask1">
  <g filter="url(#alpha)">
<rect x="0" y="0" width="520" height="277" style="fill:rgb(0%,0%,0%);fill-opacity:0.101961;stroke:none;"/>
  </g>
</mask>
<clipPath id="clip2">
  <rect x="0" y="0" width="520" height="277"/>
</clipPath>
<g id="surface8" clip-path="url(#clip2)">
<path style=" stroke:none;fill-rule:nonzero;fill:rgb(5.098039%,56.470588%,98.823529%);fill-opacity:1;" d="M 81.371094 22.046875 L 81.371094 276.855469 L 60.226562 277.085938 C 55.714844 277.136719 51.222656 276.492188 46.90625 275.175781 L 46.90625 53.046875 L 46.941406 53.046875 C 57.324219 40.269531 68.96875 29.609375 81.371094 22.046875 Z M 81.371094 22.046875 "/>
<path style=" stroke:none;fill-rule:nonzero;fill:rgb(5.098039%,56.470588%,98.823529%);fill-opacity:1;" d="M 518.453125 58.585938 L 42.589844 58.585938 C 44.003906 56.703125 45.441406 54.871094 46.90625 53.085938 L 46.90625 53.046875 L 517.269531 53.046875 C 517.722656 54.855469 518.117188 56.703125 518.453125 58.585938 Z M 518.453125 58.585938 "/>
<path style=" stroke:none;fill-rule:nonzero;fill:rgb(5.098039%,56.470588%,98.823529%);fill-opacity:1;" d="M 480.277344 9.300781 L 480.277344 222.800781 L 478.542969 222.800781 C 477.644531 224.691406 476.757812 226.542969 475.882812 228.359375 C 475.492188 229.164062 475.101562 229.953125 474.722656 230.746094 L 474.722656 7.28125 C 476.644531 7.898438 478.496094 8.574219 480.277344 9.300781 Z M 480.277344 9.300781 "/>
<path style=" stroke:none;fill-rule:nonzero;fill:rgb(5.098039%,56.470588%,98.823529%);fill-opacity:1;" d="M 348.101562 6.835938 L 348.101562 273.960938 L 342.546875 274.019531 L 342.546875 7.976562 C 344.390625 7.585938 346.238281 7.199219 348.101562 6.835938 Z M 348.101562 6.835938 "/>
<path style=" stroke:none;fill-rule:nonzero;fill:rgb(5.098039%,56.470588%,98.823529%);fill-opacity:1;" d="M 214.734375 31.621094 L 214.734375 275.410156 L 209.183594 275.46875 L 209.183594 31.355469 C 211.035156 31.476562 212.890625 31.546875 214.734375 31.621094 Z M 214.734375 31.621094 "/>
<path style=" stroke:none;fill-rule:nonzero;fill:rgb(5.098039%,56.470588%,98.823529%);fill-opacity:1;" d="M 478.542969 222.804688 C 477.644531 224.695312 476.757812 226.546875 475.882812 228.363281 L 7.246094 228.363281 C 6.605469 226.535156 6.007812 224.683594 5.449219 222.804688 Z M 478.542969 222.804688 "/>
</g>
<mask id="mask2">
  <g filter="url(#alpha)">
<rect x="0" y="0" width="520" height="277" style="fill:rgb(0%,0%,0%);fill-opacity:0.2;stroke:none;"/>
  </g>
</mask>
<clipPath id="clip3">
  <rect x="0" y="0" width="520" height="277"/>
</clipPath>
<g id="surface11" clip-path="url(#clip3)">
<path style=" stroke:none;fill-rule:nonzero;fill:rgb(0%,0%,0%);fill-opacity:1;" d="M 431.136719 266.824219 L 431.136719 273.324219 L 355.25 274.023438 L 354.4375 274.039062 L 325.597656 274.304688 L 324.90625 274.316406 L 316.140625 274.390625 L 315.882812 274.390625 L 262.441406 274.886719 L 174.722656 275.699219 L 174.648438 275.699219 L 152.34375 275.910156 L 152.105469 275.914062 L 53 276.824219 L 53 269.324219 L 76.300781 255.324219 L 123.058594 254.933594 L 124.054688 254.929688 L 124.386719 254.925781 L 125.382812 254.910156 L 147.832031 254.726562 L 148.835938 254.71875 L 149.15625 254.714844 L 150.15625 254.710938 L 157.355469 254.648438 L 157.542969 254.644531 L 175.300781 254.496094 L 175.445312 254.496094 L 314.011719 253.324219 L 317.40625 253.300781 L 317.746094 253.300781 L 320.332031 253.273438 L 339.140625 253.121094 L 340.136719 253.105469 L 341.0625 253.09375 L 341.542969 253.09375 L 347.390625 253.050781 L 348.550781 253.035156 L 350.101562 253.023438 L 354.972656 252.980469 L 362.703125 252.914062 L 363.699219 252.90625 L 365.4375 252.894531 L 365.761719 252.894531 L 403.082031 252.574219 Z M 431.136719 266.824219 "/>
</g>
<mask id="mask3">
  <g filter="url(#alpha)">
<rect x="0" y="0" width="520" height="277" style="fill:rgb(0%,0%,0%);fill-opacity:0.101961;stroke:none;"/>
  </g>
</mask>
<clipPath id="clip4">
  <rect x="0" y="0" width="520" height="277"/>
</clipPath>
<g id="surface14" clip-path="url(#clip4)">
<path style=" stroke:none;fill-rule:nonzero;fill:rgb(0%,0%,0%);fill-opacity:1;" d="M 147.90625 241.828125 L 147.90625 254.074219 C 147.910156 255.257812 147.226562 256.335938 146.160156 256.84375 C 145.769531 257.035156 145.34375 257.136719 144.910156 257.144531 L 127.476562 257.515625 C 127.011719 257.527344 126.550781 257.429688 126.128906 257.230469 C 125.042969 256.730469 124.34375 255.644531 124.34375 254.445312 L 124.34375 241.828125 Z M 147.90625 241.828125 "/>
</g>
<mask id="mask4">
  <g filter="url(#alpha)">
<rect x="0" y="0" width="520" height="277" style="fill:rgb(0%,0%,0%);fill-opacity:0.101961;stroke:none;"/>
  </g>
</mask>
<clipPath id="clip5">
  <rect x="0" y="0" width="520" height="277"/>
</clipPath>
<g id="surface17" clip-path="url(#clip5)">
<path style=" stroke:none;fill-rule:nonzero;fill:rgb(0%,0%,0%);fill-opacity:1;" d="M 340.136719 241.828125 L 363.699219 241.828125 L 363.699219 257.578125 L 340.136719 257.578125 Z M 340.136719 241.828125 "/>
</g>
<mask id="mask5">
  <g filter="url(#alpha)">
<rect x="0" y="0" width="520" height="277" style="fill:rgb(0%,0%,0%);fill-opacity:0.101961;stroke:none;"/>
  </g>
</mask>
<clipPath id="clip6">
  <rect x="0" y="0" width="520" height="277"/>
</clipPath>
<g id="surface20" clip-path="url(#clip6)">
<path style=" stroke:none;fill-rule:nonzero;fill:rgb(0%,0%,0%);fill-opacity:1;" d="M 115.1875 132.910156 L 115.1875 135.773438 L 105.699219 135.53125 L 105.699219 132.910156 Z M 115.1875 132.910156 "/>
</g>
<mask id="mask6">
  <g filter="url(#alpha)">
<rect x="0" y="0" width="520" height="277" style="fill:rgb(0%,0%,0%);fill-opacity:0.101961;stroke:none;"/>
  </g>
</mask>
<clipPath id="clip7">
  <rect x="0" y="0" width="520" height="277"/>
</clipPath>
<g id="surface23" clip-path="url(#clip7)">
<path style=" stroke:none;fill-rule:nonzero;fill:rgb(0%,0%,0%);fill-opacity:1;" d="M 370.609375 131.410156 L 370.609375 133.304688 L 361.117188 133.5 L 361.117188 131.410156 Z M 370.609375 131.410156 "/>
</g>
<mask id="mask7">
  <g filter="url(#alpha)">
<rect x="0" y="0" width="520" height="277" style="fill:rgb(0%,0%,0%);fill-opacity:0.101961;stroke:none;"/>
  </g>
</mask>
<clipPath id="clip8">
  <rect x="0" y="0" width="520" height="277"/>
</clipPath>
<g id="surface26" clip-path="url(#clip8)">
<path style=" stroke:none;fill-rule:nonzero;fill:rgb(0%,0%,0%);fill-opacity:1;" d="M 413.433594 129.808594 C 413.460938 130.230469 413.316406 130.640625 413.03125 130.949219 C 412.75 131.257812 412.351562 131.441406 411.933594 131.449219 L 403.082031 42.046875 L 404.082031 41.996094 C 404.90625 41.953125 405.617188 42.570312 405.691406 43.394531 Z M 413.433594 129.808594 "/>
</g>
<mask id="mask8">
  <g filter="url(#alpha)">
<rect x="0" y="0" width="520" height="277" style="fill:rgb(0%,0%,0%);fill-opacity:0.101961;stroke:none;"/>
  </g>
</mask>
<clipPath id="clip9">
  <rect x="0" y="0" width="520" height="277"/>
</clipPath>
<g id="surface29" clip-path="url(#clip9)">
<path style=" stroke:none;fill-rule:nonzero;fill:rgb(0%,0%,0%);fill-opacity:1;" d="M 84.035156 43.546875 L 72.761719 133.683594 L 71.027344 133.640625 C 70.417969 133.625 69.839844 133.351562 69.445312 132.886719 C 69.046875 132.421875 68.867188 131.8125 68.949219 131.203125 L 81.75 45.363281 C 81.921875 44.253906 82.914062 43.460938 84.035156 43.546875 Z M 84.035156 43.546875 "/>
</g>
<mask id="mask9">
  <g filter="url(#alpha)">
<rect x="0" y="0" width="520" height="277" style="fill:rgb(0%,0%,0%);fill-opacity:0.101961;stroke:none;"/>
  </g>
</mask>
<clipPath id="clip10">
  <rect x="0" y="0" width="520" height="277"/>
</clipPath>
<g id="surface32" clip-path="url(#clip10)">
<path style=" stroke:none;fill-rule:nonzero;fill:rgb(0%,0%,0%);fill-opacity:1;" d="M 105.699219 153.203125 L 115.1875 153.203125 L 115.1875 161.746094 L 105.699219 161.746094 Z M 105.699219 153.203125 "/>
</g>
<mask id="mask10">
  <g filter="url(#alpha)">
<rect x="0" y="0" width="520" height="277" style="fill:rgb(0%,0%,0%);fill-opacity:0.101961;stroke:none;"/>
  </g>
</mask>
<clipPath id="clip11">
  <rect x="0" y="0" width="520" height="277"/>
</clipPath>
<g id="surface35" clip-path="url(#clip11)">
<path style=" stroke:none;fill-rule:nonzero;fill:rgb(0%,0%,0%);fill-opacity:1;" d="M 148.90625 241.824219 L 148.90625 244.308594 L 125.34375 244.941406 L 125.34375 241.824219 Z M 148.90625 241.824219 "/>
</g>
<mask id="mask11">
  <g filter="url(#alpha)">
<rect x="0" y="0" width="520" height="277" style="fill:rgb(0%,0%,0%);fill-opacity:0.101961;stroke:none;"/>
  </g>
</mask>
<clipPath id="clip12">
  <rect x="0" y="0" width="520" height="277"/>
</clipPath>
<g id="surface38" clip-path="url(#clip12)">
<path style=" stroke:none;fill-rule:nonzero;fill:rgb(0%,0%,0%);fill-opacity:1;" d="M 92.835938 154.203125 L 92.835938 244.804688 L 92.8125 244.804688 C 91.726562 244.792969 90.851562 243.914062 90.835938 242.828125 L 90.835938 156.179688 C 90.851562 155.09375 91.726562 154.21875 92.8125 154.203125 Z M 92.835938 154.203125 "/>
</g>
<mask id="mask12">
  <g filter="url(#alpha)">
<rect x="0" y="0" width="520" height="277" style="fill:rgb(0%,0%,0%);fill-opacity:0.101961;stroke:none;"/>
  </g>
</mask>
<clipPath id="clip13">
  <rect x="0" y="0" width="520" height="277"/>
</clipPath>
<g id="surface41" clip-path="url(#clip13)">
<path style=" stroke:none;fill-rule:nonzero;fill:rgb(0%,0%,0%);fill-opacity:1;" d="M 361.117188 153.203125 L 370.609375 153.203125 L 370.609375 161.914062 L 361.117188 161.914062 Z M 361.117188 153.203125 "/>
</g>
<mask id="mask13">
  <g filter="url(#alpha)">
<rect x="0" y="0" width="520" height="277" style="fill:rgb(0%,0%,0%);fill-opacity:0.101961;stroke:none;"/>
  </g>
</mask>
<clipPath id="clip14">
  <rect x="0" y="0" width="520" height="277"/>
</clipPath>
<g id="surface44" clip-path="url(#clip14)">
<path style=" stroke:none;fill-rule:nonzero;fill:rgb(0%,0%,0%);fill-opacity:1;" d="M 362.703125 241.824219 L 362.703125 245.03125 L 339.140625 244.398438 L 339.140625 241.824219 Z M 362.703125 241.824219 "/>
</g>
<mask id="mask14">
  <g filter="url(#alpha)">
<rect x="0" y="0" width="520" height="277" style="fill:rgb(0%,0%,0%);fill-opacity:0.101961;stroke:none;"/>
  </g>
</mask>
<clipPath id="clip15">
  <rect x="0" y="0" width="520" height="277"/>
</clipPath>
<g id="surface47" clip-path="url(#clip15)">
<path style=" stroke:none;fill-rule:nonzero;fill:rgb(0%,0%,0%);fill-opacity:1;" d="M 393.796875 156.179688 L 393.796875 242.828125 C 393.78125 243.925781 392.890625 244.804688 391.796875 244.804688 L 391.796875 154.203125 C 392.890625 154.203125 393.78125 155.085938 393.796875 156.179688 Z M 393.796875 156.179688 "/>
</g>
<mask id="mask15">
  <g filter="url(#alpha)">
<rect x="0" y="0" width="520" height="277" style="fill:rgb(0%,0%,0%);fill-opacity:0.101961;stroke:none;"/>
  </g>
</mask>
<clipPath id="clip16">
  <rect x="0" y="0" width="520" height="277"/>
</clipPath>
<g id="surface50" clip-path="url(#clip16)">
<path style=" stroke:none;fill-rule:nonzero;fill:rgb(0%,0%,0%);fill-opacity:1;" d="M 431.136719 266.824219 L 431.136719 273.324219 L 355.25 274.023438 L 354.4375 274.039062 L 325.597656 274.304688 L 324.90625 274.316406 L 316.140625 274.390625 L 315.882812 274.390625 L 262.441406 274.886719 L 174.722656 275.699219 L 174.648438 275.699219 L 152.34375 275.910156 L 152.105469 275.914062 L 53 276.824219 L 53 269.324219 L 154.15625 268.660156 L 154.398438 268.660156 L 174.871094 268.519531 L 174.964844 268.519531 L 316.371094 267.585938 L 316.515625 267.585938 L 316.601562 267.578125 L 316.835938 267.578125 L 319.226562 267.566406 L 319.957031 267.566406 L 357.167969 267.316406 L 359.363281 267.304688 L 359.855469 267.300781 Z M 431.136719 266.824219 "/>
</g>
<linearGradient id="linear0" gradientUnits="userSpaceOnUse" x1="597.75" y1="725.44" x2="597.75" y2="347.69" gradientTransform="matrix(0.49952,0,0,0.5,-39.631892,-86.455)">
<stop offset="0" style="stop-color:rgb(50.196078%,50.196078%,50.196078%);stop-opacity:0.25098;"/>
<stop offset="0.54" style="stop-color:rgb(50.196078%,50.196078%,50.196078%);stop-opacity:0.121569;"/>
<stop offset="1" style="stop-color:rgb(50.196078%,50.196078%,50.196078%);stop-opacity:0.101961;"/>
</linearGradient>
<mask id="mask16">
  <g filter="url(#alpha)">
<rect x="0" y="0" width="520" height="277" style="fill:rgb(0%,0%,0%);fill-opacity:0.101961;stroke:none;"/>
  </g>
</mask>
<clipPath id="clip17">
  <rect x="0" y="0" width="520" height="277"/>
</clipPath>
<g id="surface53" clip-path="url(#clip17)">
<path style=" stroke:none;fill-rule:nonzero;fill:rgb(0%,0%,0%);fill-opacity:1;" d="M 269.042969 188.578125 C 269.042969 188.578125 219.339844 194.578125 224.085938 188.578125 C 225.804688 186.410156 226.277344 179.980469 226.183594 172.65625 C 233.761719 169.414062 243.402344 171.828125 243.402344 171.828125 C 253.550781 169.804688 260.058594 170.199219 264.222656 171.621094 C 265.539062 177.351562 267.144531 183.011719 269.042969 188.578125 Z M 269.042969 188.578125 "/>
</g>
<mask id="mask17">
  <g filter="url(#alpha)">
<rect x="0" y="0" width="520" height="277" style="fill:rgb(0%,0%,0%);fill-opacity:0.101961;stroke:none;"/>
  </g>
</mask>
<clipPath id="clip18">
  <rect x="0" y="0" width="520" height="277"/>
</clipPath>
<g id="surface56" clip-path="url(#clip18)">
<path style=" stroke:none;fill-rule:nonzero;fill:rgb(0%,0%,0%);fill-opacity:1;" d="M 182.875 217.328125 C 182.875 217.328125 211.347656 232.078125 221.585938 230.328125 Z M 182.875 217.328125 "/>
</g>
<mask id="mask18">
  <g filter="url(#alpha)">
<rect x="0" y="0" width="520" height="277" style="fill:rgb(0%,0%,0%);fill-opacity:0.101961;stroke:none;"/>
  </g>
</mask>
<clipPath id="clip19">
  <rect x="0" y="0" width="520" height="277"/>
</clipPath>
<g id="surface59" clip-path="url(#clip19)">
<path style=" stroke:none;fill-rule:nonzero;fill:rgb(0%,0%,0%);fill-opacity:1;" d="M 240.820312 211.328125 C 240.820312 211.328125 268.542969 220.328125 277.78125 221.578125 C 287.023438 222.828125 240.820312 211.328125 240.820312 211.328125 Z M 240.820312 211.328125 "/>
</g>
<mask id="mask19">
  <g filter="url(#alpha)">
<rect x="0" y="0" width="520" height="277" style="fill:rgb(0%,0%,0%);fill-opacity:0.101961;stroke:none;"/>
  </g>
</mask>
<clipPath id="clip20">
  <rect x="0" y="0" width="520" height="277"/>
</clipPath>
<g id="surface62" clip-path="url(#clip20)">
<path style=" stroke:none;fill-rule:nonzero;fill:rgb(0%,0%,0%);fill-opacity:1;" d="M 271.570312 182.371094 C 257.082031 185.039062 229.808594 184.464844 218.019531 184.058594 C 222.339844 168.558594 243.410156 173.828125 243.410156 173.828125 C 269.492188 168.621094 271.488281 179.429688 271.570312 182.371094 Z M 271.570312 182.371094 "/>
</g>
<mask id="mask20">
  <g filter="url(#alpha)">
<rect x="0" y="0" width="520" height="277" style="fill:rgb(0%,0%,0%);fill-opacity:0.101961;stroke:none;"/>
  </g>
</mask>
<clipPath id="clip21">
  <rect x="0" y="0" width="520" height="277"/>
</clipPath>
<g id="surface65" clip-path="url(#clip21)">
<path style=" stroke:none;fill-rule:nonzero;fill:rgb(0%,0%,0%);fill-opacity:1;" d="M 262.722656 164.269531 C 261.988281 164.597656 261.238281 164.890625 260.472656 165.140625 C 255.089844 167 249.660156 168.875 243.992188 169.554688 C 238.320312 170.234375 232.371094 169.636719 227.425781 166.804688 C 226.90625 166.511719 226.40625 166.1875 225.929688 165.828125 C 225.378906 154.828125 224.054688 144.078125 224.054688 144.078125 C 224.054688 144.078125 267.511719 123.578125 262.519531 139.828125 C 260.53125 146.394531 261.203125 155.613281 262.722656 164.269531 Z M 262.722656 164.269531 "/>
</g>
<mask id="mask21">
  <g filter="url(#alpha)">
<rect x="0" y="0" width="520" height="277" style="fill:rgb(0%,0%,0%);fill-opacity:0.101961;stroke:none;"/>
  </g>
</mask>
<clipPath id="clip22">
  <rect x="0" y="0" width="520" height="277"/>
</clipPath>
<g id="surface68" clip-path="url(#clip22)">
<path style=" stroke:none;fill-rule:nonzero;fill:rgb(0%,0%,0%);fill-opacity:1;" d="M 318.210938 242.128906 L 318.160156 242.84375 L 318.160156 242.894531 L 318.074219 244.046875 L 317.410156 253.300781 L 316.605469 264.449219 L 316.375 267.589844 L 315.875 274.308594 L 315.875 274.394531 L 262.425781 274.894531 L 174.71875 275.84375 L 174.71875 276.265625 L 174.648438 276.265625 L 174.648438 275.703125 L 174.871094 268.523438 L 175.300781 254.496094 L 175.671875 242.601562 L 175.707031 241.414062 C 175.75 239.96875 176.386719 238.605469 177.464844 237.644531 C 178.542969 236.683594 179.972656 236.207031 181.410156 236.328125 C 183.769531 236.53125 186.832031 236.773438 190.492188 237.035156 L 191.992188 237.144531 C 213.136719 238.613281 252.210938 240.515625 291.644531 238.144531 C 292.472656 238.101562 293.308594 238.050781 294.140625 237.988281 C 300.257812 237.605469 306.367188 237.109375 312.414062 236.488281 C 313.960938 236.328125 315.503906 236.859375 316.621094 237.945312 C 317.738281 239.027344 318.320312 240.550781 318.210938 242.105469 Z M 318.210938 242.128906 "/>
</g>
<mask id="mask22">
  <g filter="url(#alpha)">
<rect x="0" y="0" width="520" height="277" style="fill:rgb(0%,0%,0%);fill-opacity:0.101961;stroke:none;"/>
  </g>
</mask>
<clipPath id="clip23">
  <rect x="0" y="0" width="520" height="277"/>
</clipPath>
<g id="surface71" clip-path="url(#clip23)">
<path style=" stroke:none;fill-rule:nonzero;fill:rgb(0%,0%,0%);fill-opacity:1;" d="M 318.359375 245.636719 L 317.746094 253.300781 L 316.832031 264.726562 L 316.601562 267.585938 L 316.101562 273.988281 L 316.070312 274.308594 L 316.070312 274.394531 L 315.996094 275.136719 L 316.050781 274.394531 L 315.90625 274.394531 L 262.457031 274.894531 L 174.71875 275.84375 L 174.71875 275.703125 L 174.960938 268.523438 L 175.460938 254.496094 L 175.78125 245.171875 C 175.8125 244.09375 176.386719 243.105469 177.308594 242.546875 C 177.875 242.199219 178.535156 242.039062 179.199219 242.09375 C 180.246094 242.179688 181.535156 242.28125 183.039062 242.390625 C 185.480469 242.570312 188.492188 242.78125 192 243 C 198.492188 243.410156 206.640625 243.851562 215.976562 244.210938 C 241.953125 245.210938 277.019531 245.546875 310.328125 242.625 C 311.824219 242.496094 313.375 242.351562 314.886719 242.203125 C 315.484375 242.144531 316.089844 242.261719 316.625 242.535156 C 316.777344 242.609375 316.921875 242.699219 317.054688 242.804688 C 317.488281 243.121094 317.835938 243.542969 318.054688 244.035156 C 318.105469 244.132812 318.148438 244.234375 318.179688 244.339844 C 318.328125 244.753906 318.390625 245.195312 318.359375 245.636719 Z M 318.359375 245.636719 "/>
</g>
<mask id="mask23">
  <g filter="url(#alpha)">
<rect x="0" y="0" width="520" height="277" style="fill:rgb(0%,0%,0%);fill-opacity:0.101961;stroke:none;"/>
  </g>
</mask>
<clipPath id="clip24">
  <rect x="0" y="0" width="520" height="277"/>
</clipPath>
<g id="surface74" clip-path="url(#clip24)">
<path style=" stroke:none;fill-rule:nonzero;fill:rgb(0%,0%,0%);fill-opacity:1;" d="M 148.90625 252.480469 L 148.90625 254.074219 C 148.90625 255.257812 148.226562 256.335938 147.160156 256.84375 L 127.128906 257.230469 C 126.039062 256.730469 125.34375 255.644531 125.34375 254.445312 L 125.34375 252.945312 Z M 148.90625 252.480469 "/>
</g>
<mask id="mask24">
  <g filter="url(#alpha)">
<rect x="0" y="0" width="520" height="277" style="fill:rgb(0%,0%,0%);fill-opacity:0.101961;stroke:none;"/>
  </g>
</mask>
<clipPath id="clip25">
  <rect x="0" y="0" width="520" height="277"/>
</clipPath>
<g id="surface77" clip-path="url(#clip25)">
<path style=" stroke:none;fill-rule:nonzero;fill:rgb(0%,0%,0%);fill-opacity:1;" d="M 149.15625 257.785156 L 123.058594 258.285156 L 123.058594 253.949219 L 149.15625 253.449219 Z M 149.15625 257.785156 "/>
</g>
<mask id="mask25">
  <g filter="url(#alpha)">
<rect x="0" y="0" width="520" height="277" style="fill:rgb(0%,0%,0%);fill-opacity:0.101961;stroke:none;"/>
  </g>
</mask>
<clipPath id="clip26">
  <rect x="0" y="0" width="520" height="277"/>
</clipPath>
<g id="surface80" clip-path="url(#clip26)">
<path style=" stroke:none;fill-rule:nonzero;fill:rgb(0%,0%,0%);fill-opacity:1;" d="M 236.566406 94.324219 C 236.078125 93.691406 235.753906 92.945312 235.625 92.15625 C 235.503906 92.925781 235.574219 93.71875 235.832031 94.453125 C 236.082031 94.433594 236.328125 94.386719 236.566406 94.324219 Z M 236.566406 94.324219 "/>
<path style=" stroke:none;fill-rule:nonzero;fill:rgb(0%,0%,0%);fill-opacity:1;" d="M 230.222656 97.644531 C 230.128906 97.03125 230.066406 96.414062 230.039062 95.796875 C 230.039062 96.410156 230.039062 97.03125 230.039062 97.648438 Z M 230.222656 97.644531 "/>
<path style=" stroke:none;fill-rule:nonzero;fill:rgb(0%,0%,0%);fill-opacity:1;" d="M 270.933594 114.328125 C 270.960938 113.882812 271.023438 113.441406 271.113281 113.003906 C 271.351562 112.246094 271.484375 111.457031 271.515625 110.660156 C 271.503906 110.480469 271.476562 110.304688 271.433594 110.128906 C 271.347656 110.589844 271.214844 111.050781 271.113281 111.503906 C 270.914062 112.433594 270.855469 113.382812 270.933594 114.328125 Z M 270.933594 114.328125 "/>
<path style=" stroke:none;fill-rule:nonzero;fill:rgb(0%,0%,0%);fill-opacity:1;" d="M 260.542969 98.878906 L 261.089844 99.273438 C 261.546875 98.941406 261.976562 98.570312 262.371094 98.164062 C 262.753906 97.636719 262.828125 96.941406 262.5625 96.34375 C 262.511719 96.460938 262.449219 96.566406 262.371094 96.664062 C 261.757812 97.453125 260.398438 97.890625 260.542969 98.878906 Z M 260.542969 98.878906 "/>
<path style=" stroke:none;fill-rule:nonzero;fill:rgb(0%,0%,0%);fill-opacity:1;" d="M 219.5 103.691406 C 219.316406 104.054688 219.171875 104.4375 219.0625 104.828125 C 219.847656 104.394531 220.6875 104.074219 221.5625 103.886719 Z M 219.5 103.691406 "/>
<path style=" stroke:none;fill-rule:nonzero;fill:rgb(0%,0%,0%);fill-opacity:1;" d="M 226.386719 98.25 C 226.058594 98.070312 225.746094 97.863281 225.449219 97.636719 C 225.4375 97.832031 225.449219 98.03125 225.492188 98.226562 C 225.792969 98.210938 226.089844 98.21875 226.386719 98.25 Z M 226.386719 98.25 "/>
<path style=" stroke:none;fill-rule:nonzero;fill:rgb(0%,0%,0%);fill-opacity:1;" d="M 275.226562 127.710938 C 275.019531 130.136719 273.890625 132.46875 272.976562 134.769531 C 271.144531 139.378906 270.109375 144.269531 269.335938 149.175781 C 268.640625 153.570312 267.835938 158.558594 264.089844 160.996094 C 263.019531 161.636719 261.875 162.140625 260.679688 162.496094 C 255.292969 164.359375 249.863281 166.230469 244.195312 166.910156 C 238.527344 167.589844 232.578125 166.996094 227.632812 164.164062 C 226.199219 163.417969 224.964844 162.328125 224.042969 161 C 222.710938 158.886719 222.6875 156.234375 222.046875 153.816406 C 221.5 152.019531 220.832031 150.261719 220.046875 148.554688 C 218.945312 145.863281 218.09375 143.054688 217.25 140.289062 C 216.46875 137.71875 215.6875 135.148438 214.910156 132.574219 C 214.652344 131.800781 214.460938 131.007812 214.339844 130.199219 C 214.144531 131.480469 214.523438 132.820312 214.910156 134.074219 C 215.6875 136.652344 216.46875 139.222656 217.25 141.789062 C 218.09375 144.574219 218.945312 147.363281 220.046875 150.054688 C 220.832031 151.761719 221.5 153.519531 222.046875 155.316406 C 222.675781 157.734375 222.699219 160.386719 224.042969 162.5 C 224.964844 163.828125 226.199219 164.917969 227.632812 165.664062 C 232.578125 168.496094 238.539062 169.089844 244.195312 168.410156 C 249.851562 167.730469 255.273438 165.859375 260.679688 163.996094 C 261.875 163.640625 263.019531 163.136719 264.089844 162.496094 C 267.8125 160.058594 268.640625 155.070312 269.335938 150.675781 C 270.109375 145.769531 271.144531 140.878906 272.976562 136.269531 C 274.066406 133.53125 275.476562 130.746094 275.234375 127.800781 C 275.234375 127.769531 275.226562 127.738281 275.226562 127.710938 Z M 275.226562 127.710938 "/>
<path style=" stroke:none;fill-rule:nonzero;fill:rgb(0%,0%,0%);fill-opacity:1;" d="M 215.4375 125.773438 C 215.4375 125.773438 215.4375 125.738281 215.4375 125.71875 C 215.527344 124.839844 215.449219 123.949219 215.207031 123.09375 C 215.109375 122.546875 215.042969 121.992188 215.011719 121.433594 C 214.957031 122.492188 215.019531 123.554688 215.207031 124.59375 C 215.289062 124.984375 215.378906 125.378906 215.4375 125.773438 Z M 215.4375 125.773438 "/>
<path style=" stroke:none;fill-rule:nonzero;fill:rgb(0%,0%,0%);fill-opacity:1;" d="M 216.960938 113.546875 C 217.34375 112.898438 217.78125 112.285156 218.265625 111.710938 C 217.351562 112.585938 215.664062 111.804688 215.308594 110.589844 C 215.175781 111.082031 215.175781 111.597656 215.308594 112.089844 C 215.558594 112.835938 216.1875 113.390625 216.960938 113.546875 Z M 216.960938 113.546875 "/>
</g>
<mask id="mask26">
  <g filter="url(#alpha)">
<rect x="0" y="0" width="520" height="277" style="fill:rgb(0%,0%,0%);fill-opacity:0.101961;stroke:none;"/>
  </g>
</mask>
<clipPath id="clip27">
  <rect x="0" y="0" width="520" height="277"/>
</clipPath>
<g id="surface83" clip-path="url(#clip27)">
<path style=" stroke:none;fill-rule:nonzero;fill:rgb(0%,0%,0%);fill-opacity:1;" d="M 341.722656 241.828125 C 341.722656 241.828125 343.304688 247.578125 341.722656 252.578125 C 340.136719 257.578125 341.722656 241.828125 341.722656 241.828125 Z M 341.722656 241.828125 "/>
</g>
<mask id="mask27">
  <g filter="url(#alpha)">
<rect x="0" y="0" width="520" height="277" style="fill:rgb(0%,0%,0%);fill-opacity:0.101961;stroke:none;"/>
  </g>
</mask>
<clipPath id="clip28">
  <rect x="0" y="0" width="520" height="277"/>
</clipPath>
<g id="surface86" clip-path="url(#clip28)">
<path style=" stroke:none;fill-rule:nonzero;fill:rgb(0%,0%,0%);fill-opacity:1;" d="M 348.464844 247.695312 C 348.464844 247.695312 349.128906 254.996094 347.628906 256.289062 C 346.132812 257.585938 348.464844 247.695312 348.464844 247.695312 Z M 348.464844 247.695312 "/>
</g>
</defs>
<g id="surface1">
<use xlink:href="#surface5" mask="url(#mask0)"/>
<use xlink:href="#surface8" mask="url(#mask1)"/>
<path style=" stroke:none;fill-rule:nonzero;fill:rgb(24.705882%,23.921569%,33.72549%);fill-opacity:1;" d="M 105.699219 132.914062 L 115.1875 132.914062 L 115.1875 161.746094 L 105.699219 161.746094 Z M 105.699219 132.914062 "/>
<path style=" stroke:none;fill-rule:nonzero;fill:rgb(24.705882%,23.921569%,33.72549%);fill-opacity:1;" d="M 361.117188 131.414062 L 370.609375 131.414062 L 370.609375 161.914062 L 361.117188 161.914062 Z M 361.117188 131.414062 "/>
<path style=" stroke:none;fill-rule:nonzero;fill:rgb(39.607843%,38.039216%,49.019608%);fill-opacity:1;" d="M 431.136719 266.824219 L 431.136719 273.324219 L 355.25 274.023438 L 354.4375 274.039062 L 325.597656 274.304688 L 324.90625 274.316406 L 316.140625 274.390625 L 315.882812 274.390625 L 262.441406 274.886719 L 174.722656 275.699219 L 174.648438 275.699219 L 152.34375 275.910156 L 152.105469 275.914062 L 53 276.824219 L 53 269.324219 L 76.300781 255.324219 L 123.058594 254.933594 L 124.054688 254.929688 L 124.386719 254.925781 L 125.382812 254.910156 L 147.832031 254.726562 L 148.835938 254.71875 L 149.15625 254.714844 L 150.15625 254.710938 L 157.355469 254.648438 L 157.542969 254.644531 L 175.300781 254.496094 L 175.445312 254.496094 L 314.011719 253.324219 L 317.40625 253.300781 L 317.746094 253.300781 L 320.332031 253.273438 L 339.140625 253.121094 L 340.136719 253.105469 L 341.0625 253.09375 L 341.542969 253.09375 L 347.390625 253.050781 L 348.550781 253.035156 L 350.101562 253.023438 L 354.972656 252.980469 L 362.703125 252.914062 L 363.699219 252.90625 L 365.4375 252.894531 L 365.761719 252.894531 L 403.082031 252.574219 Z M 431.136719 266.824219 "/>
<use xlink:href="#surface11" mask="url(#mask2)"/>
<path style=" stroke:none;fill-rule:nonzero;fill:rgb(24.705882%,23.921569%,33.72549%);fill-opacity:1;" d="M 147.90625 241.828125 L 147.90625 254.074219 C 147.910156 255.257812 147.226562 256.335938 146.160156 256.84375 C 145.769531 257.035156 145.34375 257.136719 144.910156 257.144531 L 127.476562 257.515625 C 127.011719 257.527344 126.550781 257.429688 126.128906 257.230469 C 125.042969 256.730469 124.34375 255.644531 124.34375 254.445312 L 124.34375 241.828125 Z M 147.90625 241.828125 "/>
<use xlink:href="#surface14" mask="url(#mask3)"/>
<path style=" stroke:none;fill-rule:nonzero;fill:rgb(24.705882%,23.921569%,33.72549%);fill-opacity:1;" d="M 148.90625 241.828125 L 148.90625 254.074219 C 148.90625 255.257812 148.226562 256.335938 147.160156 256.84375 C 146.769531 257.035156 146.34375 257.136719 145.910156 257.144531 L 128.476562 257.515625 C 128.011719 257.527344 127.550781 257.429688 127.128906 257.230469 C 126.039062 256.730469 125.34375 255.644531 125.34375 254.445312 L 125.34375 241.828125 Z M 148.90625 241.828125 "/>
<path style=" stroke:none;fill-rule:nonzero;fill:rgb(24.705882%,23.921569%,33.72549%);fill-opacity:1;" d="M 340.136719 241.828125 L 363.699219 241.828125 L 363.699219 257.578125 L 340.136719 257.578125 Z M 340.136719 241.828125 "/>
<use xlink:href="#surface17" mask="url(#mask4)"/>
<path style=" stroke:none;fill-rule:nonzero;fill:rgb(24.705882%,23.921569%,33.72549%);fill-opacity:1;" d="M 339.140625 241.828125 L 362.703125 241.828125 L 362.703125 257.578125 L 339.140625 257.578125 Z M 339.140625 241.828125 "/>
<use xlink:href="#surface20" mask="url(#mask5)"/>
<path style=" stroke:none;fill-rule:nonzero;fill:rgb(39.607843%,38.039216%,49.019608%);fill-opacity:1;" d="M 177.660156 52.199219 L 166.253906 134.199219 C 166.105469 135.285156 165.164062 136.082031 164.070312 136.054688 L 72.761719 133.683594 L 71.027344 133.640625 C 70.417969 133.625 69.839844 133.351562 69.445312 132.886719 C 69.046875 132.421875 68.867188 131.8125 68.949219 131.203125 L 81.75 45.363281 C 81.921875 44.261719 82.90625 43.472656 84.019531 43.550781 L 175.660156 49.761719 C 176.257812 49.792969 176.816406 50.078125 177.195312 50.542969 C 177.574219 51.003906 177.742188 51.605469 177.660156 52.199219 Z M 177.660156 52.199219 "/>
<path style=" stroke:none;fill-rule:nonzero;fill:rgb(5.098039%,56.470588%,98.823529%);fill-opacity:1;" d="M 87.878906 49.578125 L 78.226562 125.246094 L 162.144531 127.910156 L 172.464844 54.910156 Z M 87.878906 49.578125 "/>
<path style=" stroke:none;fill-rule:nonzero;fill:rgb(39.607843%,38.039216%,49.019608%);fill-opacity:1;" d="M 194.777344 48.410156 L 291.691406 48.410156 C 293.160156 48.410156 294.351562 49.601562 294.351562 51.074219 L 294.351562 132.410156 C 294.351562 133.882812 293.160156 135.074219 291.691406 135.074219 L 194.777344 135.074219 C 193.308594 135.074219 192.117188 133.882812 192.117188 132.410156 L 192.117188 51.074219 C 192.117188 49.601562 193.308594 48.410156 194.777344 48.410156 Z M 194.777344 48.410156 "/>
<path style=" stroke:none;fill-rule:nonzero;fill:rgb(5.098039%,56.470588%,98.823529%);fill-opacity:1;" d="M 196.941406 54.246094 L 289.851562 54.246094 L 289.851562 126.410156 L 196.941406 126.410156 Z M 196.941406 54.246094 "/>
<use xlink:href="#surface23" mask="url(#mask6)"/>
<path style=" stroke:none;fill-rule:nonzero;fill:rgb(39.607843%,38.039216%,49.019608%);fill-opacity:1;" d="M 413.433594 129.808594 C 413.460938 130.230469 413.316406 130.640625 413.03125 130.949219 C 412.75 131.257812 412.351562 131.441406 411.933594 131.449219 L 318.421875 133.386719 C 317.617188 133.402344 316.9375 132.792969 316.859375 131.988281 L 308.824219 48.351562 C 308.78125 47.929688 308.917969 47.511719 309.191406 47.195312 C 309.46875 46.875 309.859375 46.683594 310.28125 46.664062 L 403.082031 42.046875 L 404.082031 41.996094 C 404.90625 41.953125 405.617188 42.570312 405.691406 43.394531 Z M 413.433594 129.808594 "/>
<path style=" stroke:none;fill-rule:nonzero;fill:rgb(5.098039%,56.470588%,98.823529%);fill-opacity:1;" d="M 314.164062 51.578125 L 398.917969 47.410156 L 406.074219 123.410156 L 321.992188 125.410156 Z M 314.164062 51.578125 "/>
<use xlink:href="#surface26" mask="url(#mask7)"/>
<use xlink:href="#surface29" mask="url(#mask8)"/>
<use xlink:href="#surface32" mask="url(#mask9)"/>
<use xlink:href="#surface35" mask="url(#mask10)"/>
<path style=" stroke:none;fill-rule:nonzero;fill:rgb(39.607843%,38.039216%,49.019608%);fill-opacity:1;" d="M 190.492188 156.179688 L 190.492188 240.28125 C 190.480469 241.347656 189.632812 242.214844 188.570312 242.253906 L 92.835938 244.804688 L 92.8125 244.804688 C 91.726562 244.792969 90.851562 243.914062 90.835938 242.828125 L 90.835938 156.179688 C 90.851562 155.09375 91.726562 154.21875 92.8125 154.203125 L 188.519531 154.203125 C 189.601562 154.21875 190.476562 155.09375 190.492188 156.179688 Z M 190.492188 156.179688 "/>
<use xlink:href="#surface38" mask="url(#mask11)"/>
<path style=" stroke:none;fill-rule:nonzero;fill:rgb(83.137255%,87.45098%,92.54902%);fill-opacity:1;" d="M 97.207031 159.574219 L 185.871094 159.574219 L 185.871094 233.699219 L 97.207031 235.699219 Z M 97.207031 159.574219 "/>
<use xlink:href="#surface41" mask="url(#mask12)"/>
<use xlink:href="#surface44" mask="url(#mask13)"/>
<path style=" stroke:none;fill-rule:nonzero;fill:rgb(39.607843%,38.039216%,49.019608%);fill-opacity:1;" d="M 393.796875 156.179688 L 393.796875 242.828125 C 393.78125 243.925781 392.890625 244.804688 391.796875 244.804688 L 296.046875 242.253906 C 294.980469 242.214844 294.132812 241.347656 294.121094 240.28125 L 294.121094 156.179688 C 294.136719 155.09375 295.011719 154.21875 296.09375 154.203125 L 391.804688 154.203125 C 392.894531 154.207031 393.78125 155.085938 393.796875 156.179688 Z M 393.796875 156.179688 "/>
<use xlink:href="#surface47" mask="url(#mask14)"/>
<path style=" stroke:none;fill-rule:nonzero;fill:rgb(83.137255%,87.45098%,92.54902%);fill-opacity:1;" d="M 387.425781 159.574219 L 298.761719 159.574219 L 298.761719 233.699219 L 387.425781 235.699219 Z M 387.425781 159.574219 "/>
<path style=" stroke:none;fill-rule:nonzero;fill:rgb(39.607843%,38.039216%,49.019608%);fill-opacity:1;" d="M 291.644531 156.179688 L 291.644531 240.28125 C 291.632812 241.347656 290.785156 242.214844 289.722656 242.253906 L 193.988281 244.804688 C 192.894531 244.804688 192.003906 243.925781 191.992188 242.828125 L 191.992188 156.179688 C 192.003906 155.09375 192.878906 154.21875 193.964844 154.203125 L 289.671875 154.203125 C 290.753906 154.21875 291.632812 155.09375 291.644531 156.179688 Z M 291.644531 156.179688 "/>
<path style=" stroke:none;fill-rule:nonzero;fill:rgb(83.137255%,87.45098%,92.54902%);fill-opacity:1;" d="M 198.359375 159.574219 L 287.023438 159.574219 L 287.023438 233.699219 L 198.359375 235.699219 Z M 198.359375 159.574219 "/>
<use xlink:href="#surface50" mask="url(#mask15)"/>
<path style=" stroke:none;fill-rule:nonzero;fill:rgb(98.431373%,74.509804%,74.509804%);fill-opacity:1;" d="M 269.035156 136.078125 C 269.035156 150.253906 257.558594 161.746094 243.394531 161.746094 C 229.234375 161.746094 217.753906 150.253906 217.753906 136.078125 C 217.753906 121.90625 229.234375 110.414062 243.394531 110.414062 C 257.558594 110.414062 269.035156 121.90625 269.035156 136.078125 Z M 269.035156 136.078125 "/>
<path style=" stroke:none;fill-rule:nonzero;fill:url(#linear0);" d="M 152.054688 276.089844 C 152.054688 276.035156 152.082031 275.976562 152.105469 275.914062 C 152.601562 274.121094 153.492188 271.085938 154.15625 268.660156 C 154.242188 268.359375 154.320312 268.066406 154.398438 267.785156 C 155.128906 265.050781 156.558594 258.644531 157.355469 254.648438 C 157.632812 253.246094 157.851562 252.148438 157.898438 251.601562 C 158 250.753906 159.5 247.140625 161.203125 242.984375 C 162.398438 240.066406 163.703125 236.875 164.65625 234.183594 C 165.28125 232.585938 165.769531 230.941406 166.121094 229.261719 C 166.195312 228.910156 166.195312 228.546875 166.121094 228.195312 C 165.96875 227.625 165.890625 227.035156 165.878906 226.445312 C 165.765625 223.34375 166.691406 218.445312 168.117188 216.390625 C 169.867188 213.890625 171.117188 204.558594 171.117188 204.558594 C 171.117188 204.558594 173.703125 204.933594 174.113281 202.796875 C 174.15625 202.5625 174.171875 202.328125 174.164062 202.09375 C 174.160156 201.910156 174.144531 201.722656 174.117188 201.539062 C 173.671875 198.421875 181.46875 195.101562 185.855469 194.386719 C 186.351562 194.300781 186.851562 194.253906 187.355469 194.246094 C 188.421875 194.128906 189.46875 193.886719 190.476562 193.523438 C 190.941406 193.382812 191.441406 193.214844 191.976562 193.023438 C 193.8125 192.40625 196.011719 191.585938 198.34375 190.683594 C 207.117188 187.28125 217.734375 182.683594 217.734375 182.683594 C 217.8125 182.328125 217.894531 181.988281 217.992188 181.65625 C 219.054688 177.378906 222.085938 173.867188 226.15625 172.191406 C 226.15625 171.859375 226.15625 171.523438 226.15625 171.191406 C 226.15625 169.464844 226.082031 167.691406 226.007812 165.921875 C 226.007812 165.574219 225.976562 165.230469 225.957031 164.886719 C 225.957031 164.785156 225.957031 164.679688 225.957031 164.578125 C 225.957031 164.480469 225.957031 164.40625 225.957031 164.320312 C 225.957031 163.96875 225.921875 163.621094 225.902344 163.273438 L 225.8125 163.203125 C 225.046875 162.625 224.386719 161.914062 223.863281 161.105469 C 223.574219 160.632812 223.335938 160.128906 223.15625 159.605469 C 222.53125 157.910156 222.386719 156.019531 221.964844 154.230469 L 221.875 153.859375 C 221.332031 152.054688 220.664062 150.285156 219.878906 148.570312 C 218.773438 145.859375 217.925781 143.070312 217.082031 140.246094 C 216.570312 138.535156 216.050781 136.820312 215.527344 135.105469 L 214.738281 132.484375 C 214.589844 131.984375 214.4375 131.484375 214.324219 130.984375 C 214.269531 130.753906 214.226562 130.519531 214.195312 130.285156 C 214.054688 129.519531 214.09375 128.726562 214.3125 127.980469 C 214.507812 127.46875 214.726562 126.96875 214.972656 126.480469 C 215.078125 126.257812 215.160156 126.027344 215.222656 125.789062 C 215.238281 125.738281 215.253906 125.683594 215.261719 125.628906 C 215.296875 125.453125 215.316406 125.269531 215.316406 125.089844 C 215.300781 124.433594 215.214844 123.78125 215.058594 123.144531 C 215.054688 123.136719 215.054688 123.128906 215.058594 123.121094 C 215.050781 123.074219 215.042969 123.03125 215.035156 122.984375 C 214.945312 122.488281 214.882812 121.988281 214.851562 121.484375 C 214.675781 118.777344 215.277344 116.078125 216.585938 113.699219 L 216.683594 113.519531 C 216.957031 113.035156 217.265625 112.574219 217.601562 112.128906 C 217.753906 111.921875 217.914062 111.71875 218.101562 111.519531 C 217.402344 112.191406 216.253906 111.894531 215.601562 111.175781 C 215.496094 111.0625 215.402344 110.9375 215.328125 110.800781 C 215.285156 110.726562 215.246094 110.652344 215.214844 110.574219 C 215.1875 110.515625 215.167969 110.449219 215.148438 110.386719 C 214.796875 109.160156 215.40625 107.855469 216.207031 106.859375 C 216.996094 105.890625 217.96875 105.089844 219.074219 104.511719 C 219.140625 104.472656 219.207031 104.4375 219.273438 104.40625 C 219.699219 104.191406 220.140625 104.015625 220.59375 103.875 C 220.859375 103.785156 221.132812 103.714844 221.40625 103.65625 L 219.554688 103.484375 L 218.804688 103.414062 C 219.566406 100.386719 222.183594 98.1875 225.296875 97.960938 L 225.835938 97.960938 C 226.101562 97.964844 226.363281 97.984375 226.621094 98.023438 C 225.773438 97.652344 225.242188 96.789062 225.296875 95.859375 C 226.605469 96.886719 228.226562 97.425781 229.890625 97.390625 L 230.078125 97.390625 C 229.992188 96.847656 229.9375 96.300781 229.910156 95.753906 C 229.859375 95.011719 229.859375 94.265625 229.910156 93.523438 C 230.816406 94.386719 232.054688 94.800781 233.296875 94.65625 L 232.257812 93.203125 C 233.183594 93.945312 234.351562 94.308594 235.535156 94.230469 L 235.773438 94.203125 C 235.972656 94.183594 236.171875 94.144531 236.367188 94.089844 L 236.414062 94.089844 C 236.316406 93.96875 236.234375 93.84375 236.148438 93.714844 L 236.117188 93.65625 C 235.910156 93.328125 235.742188 92.976562 235.617188 92.609375 C 235.570312 92.46875 235.527344 92.324219 235.5 92.175781 C 235.28125 91.265625 235.359375 90.3125 235.722656 89.449219 C 237.335938 90.800781 239.105469 92.644531 241.21875 91.25 C 243.332031 89.855469 243.402344 87.296875 246.710938 87.554688 C 248.566406 87.730469 250.175781 88.902344 250.914062 90.613281 C 251.871094 89.53125 253.414062 89.179688 254.746094 89.738281 C 256.054688 90.363281 256.832031 91.742188 256.683594 93.183594 C 258.058594 92.839844 259.535156 92.5 260.855469 93.019531 C 262.171875 93.539062 263.023438 95.226562 262.273438 96.351562 C 262.253906 96.386719 262.230469 96.417969 262.203125 96.449219 C 261.589844 97.246094 260.230469 97.679688 260.375 98.679688 L 260.585938 98.828125 L 261.234375 99.300781 C 263.78125 101.140625 266.261719 103.074219 268.675781 105.101562 C 269.914062 106.140625 271.234375 107.390625 271.320312 109.015625 C 271.335938 109.414062 271.292969 109.8125 271.199219 110.199219 C 271.121094 110.589844 271.007812 110.980469 270.925781 111.371094 C 270.710938 112.363281 270.652344 113.382812 270.753906 114.394531 C 270.789062 114.691406 270.835938 114.980469 270.890625 115.273438 C 271.652344 119.140625 274.742188 122.328125 275.046875 126.273438 L 275.046875 126.554688 C 275.0625 126.976562 275.050781 127.398438 275.011719 127.820312 C 274.78125 130.21875 273.671875 132.523438 272.773438 134.820312 C 272.71875 134.960938 272.664062 135.101562 272.613281 135.238281 C 270.878906 139.738281 269.878906 144.535156 269.117188 149.320312 C 268.871094 151.019531 268.535156 152.703125 268.117188 154.363281 C 267.660156 156.269531 266.792969 158.050781 265.574219 159.578125 C 265.085938 160.15625 264.523438 160.660156 263.894531 161.078125 C 263.476562 161.351562 263.03125 161.585938 262.574219 161.785156 C 262.574219 161.785156 262.574219 161.785156 262.574219 161.816406 C 262.628906 162.121094 262.671875 162.425781 262.726562 162.730469 C 262.757812 162.890625 262.78125 163.050781 262.8125 163.230469 C 262.808594 163.238281 262.808594 163.25 262.8125 163.261719 C 263.230469 165.625 263.710938 167.941406 264.214844 170.140625 L 264.46875 171.234375 C 270.765625 173.511719 271.507812 178.171875 271.554688 179.953125 C 271.570312 180.191406 271.570312 180.433594 271.554688 180.671875 C 271.554688 180.671875 281.042969 180.921875 284.792969 183.671875 C 285.492188 184.144531 286.25 184.53125 287.042969 184.820312 C 288.554688 185.390625 290.097656 185.875 291.664062 186.265625 C 292.46875 186.476562 293.308594 186.679688 294.164062 186.878906 C 295.660156 187.226562 297.25 187.558594 298.78125 187.878906 C 302.875 188.703125 306.726562 189.378906 308.679688 189.878906 C 313.339844 191.058594 324 201.289062 324 201.289062 C 324 201.289062 325.246094 211.609375 326.496094 213.113281 C 327.746094 214.621094 329.992188 219.910156 329.992188 219.910156 L 338.253906 234.613281 L 341.75 240.800781 L 344 240.800781 C 344.308594 240.800781 344.917969 241.238281 345.601562 241.851562 C 346.195312 242.378906 346.855469 243.039062 347.4375 243.640625 L 348.394531 244.664062 L 348.996094 245.328125 C 348.996094 245.328125 352.625 245.421875 353.609375 248.296875 C 356.566406 248.210938 360.199219 248.40625 362.742188 249.546875 C 363.089844 249.699219 363.421875 249.878906 363.742188 250.085938 C 364.792969 250.695312 365.542969 251.722656 365.804688 252.914062 C 365.855469 253.152344 365.882812 253.394531 365.894531 253.636719 C 365.894531 253.921875 365.894531 254.203125 365.894531 254.484375 C 365.714844 258.269531 363.25 261.421875 360.988281 263.539062 L 361.148438 263.824219 C 361.148438 263.824219 361.074219 264.003906 360.929688 264.324219 C 360.886719 264.421875 360.839844 264.523438 360.78125 264.644531 C 360.488281 265.273438 360.019531 266.21875 359.40625 267.324219 C 358.101562 269.714844 356.492188 271.929688 354.625 273.910156 L 354.480469 274.058594 L 325.636719 274.324219 L 325.550781 274.226562 L 319.957031 267.546875 L 317.175781 264.226562 L 317.089844 264.121094 L 317.011719 264.914062 L 316.742188 267.566406 L 316.089844 273.96875 L 316.054688 274.289062 L 316.054688 274.375 L 315.980469 275.113281 L 316.035156 274.375 L 315.890625 274.375 L 262.441406 274.875 L 174.71875 275.84375 L 174.71875 276.265625 L 174.648438 276.265625 L 174.648438 275.84375 L 152.292969 276.085938 Z M 152.054688 276.089844 "/>
<path style=" stroke:none;fill-rule:nonzero;fill:rgb(98.431373%,74.509804%,74.509804%);fill-opacity:1;" d="M 269.042969 188.578125 C 269.042969 188.578125 219.339844 194.578125 224.085938 188.578125 C 225.804688 186.410156 226.277344 179.980469 226.183594 172.65625 C 226.152344 170.429688 226.074219 168.125 225.957031 165.828125 C 225.410156 154.828125 224.085938 144.078125 224.085938 144.078125 C 224.085938 144.078125 267.542969 123.578125 262.546875 139.828125 C 260.550781 146.394531 261.203125 155.613281 262.722656 164.269531 C 263.167969 166.796875 263.679688 169.269531 264.222656 171.621094 C 265.539062 177.351562 267.144531 183.011719 269.042969 188.578125 Z M 269.042969 188.578125 "/>
<use xlink:href="#surface53" mask="url(#mask16)"/>
<path style=" stroke:none;fill-rule:nonzero;fill:rgb(5.098039%,56.470588%,98.823529%);fill-opacity:1;" d="M 174.703125 276.265625 L 174.703125 275.84375 L 262.425781 274.890625 L 315.875 274.390625 L 316.027344 274.390625 L 315.972656 275.128906 L 316.046875 274.390625 L 316.140625 274.390625 L 316.140625 274.304688 L 316.824219 267.578125 L 317.085938 265.035156 L 317.164062 264.238281 L 317.234375 263.574219 L 320.320312 253.269531 L 323.410156 242.980469 L 326.007812 234.316406 L 329.972656 221.074219 C 329.972656 221.074219 327.726562 215.824219 326.476562 214.324219 C 325.226562 212.824219 323.976562 202.574219 323.976562 202.574219 C 323.976562 202.574219 313.320312 192.410156 308.660156 191.238281 C 306.707031 190.738281 302.847656 190.074219 298.753906 189.238281 C 297.21875 188.929688 295.644531 188.601562 294.132812 188.238281 C 293.277344 188.046875 292.4375 187.839844 291.632812 187.636719 C 290.070312 187.242188 288.527344 186.765625 287.015625 186.203125 C 286.222656 185.917969 285.464844 185.53125 284.765625 185.058594 C 281.09375 182.363281 271.894531 182.058594 271.539062 182.058594 C 271.539062 182.046875 271.539062 182.035156 271.539062 182.023438 L 271.539062 181.980469 C 271.550781 181.769531 271.550781 181.558594 271.539062 181.351562 C 271.539062 181.148438 271.539062 180.914062 271.492188 180.648438 C 271.492188 180.570312 271.492188 180.484375 271.457031 180.398438 C 271.433594 180.21875 271.402344 180.03125 271.359375 179.828125 C 271.34375 179.742188 271.324219 179.652344 271.300781 179.566406 C 271.15625 178.960938 270.945312 178.378906 270.675781 177.820312 C 270.640625 177.738281 270.59375 177.65625 270.554688 177.574219 C 270.308594 177.113281 270.027344 176.671875 269.707031 176.261719 C 269.640625 176.175781 269.570312 176.085938 269.496094 176 C 269.085938 175.515625 268.632812 175.074219 268.136719 174.679688 C 268.003906 174.574219 267.863281 174.464844 267.71875 174.363281 C 267.636719 174.300781 267.550781 174.238281 267.460938 174.183594 L 267.019531 173.894531 L 266.605469 173.65625 C 266.238281 173.453125 265.855469 173.261719 265.433594 173.074219 C 265.304688 173.015625 265.164062 172.960938 265.023438 172.90625 C 264.886719 172.851562 264.664062 172.765625 264.480469 172.695312 L 264.449219 172.695312 L 264.074219 172.546875 C 263.792969 172.449219 263.5 172.363281 263.195312 172.28125 L 262.730469 172.160156 L 262.234375 172.046875 L 261.734375 171.941406 C 261.234375 171.839844 260.699219 171.75 260.140625 171.679688 L 259.570312 171.609375 L 258.984375 171.550781 L 258.382812 171.5 L 257.523438 171.449219 L 256.523438 171.414062 C 252.117188 171.414062 247.722656 171.882812 243.414062 172.808594 C 240.421875 172.144531 237.359375 171.859375 234.292969 171.96875 L 233.859375 171.96875 L 233.359375 172 L 233.039062 172 L 232.398438 172.058594 C 232.183594 172.058594 231.960938 172.105469 231.746094 172.136719 C 231.53125 172.164062 231.308594 172.191406 231.09375 172.226562 L 230.761719 172.28125 C 230.4375 172.335938 230.109375 172.394531 229.765625 172.464844 C 229.652344 172.484375 229.542969 172.511719 229.433594 172.539062 C 229 172.636719 228.566406 172.75 228.136719 172.878906 C 227.921875 172.941406 227.707031 173.011719 227.492188 173.085938 C 227.382812 173.113281 227.277344 173.15625 227.171875 173.195312 L 226.851562 173.308594 L 226.539062 173.433594 L 226.164062 173.585938 C 225.972656 173.664062 225.789062 173.75 225.601562 173.839844 C 225.5 173.886719 225.394531 173.933594 225.292969 173.988281 C 225.195312 174.046875 225.089844 174.089844 224.992188 174.144531 C 223.863281 174.730469 222.820312 175.464844 221.890625 176.335938 L 221.636719 176.578125 L 221.386719 176.835938 C 221.300781 176.921875 221.222656 177.011719 221.140625 177.101562 C 220.816406 177.457031 220.511719 177.832031 220.234375 178.226562 C 220.152344 178.328125 220.078125 178.433594 220.003906 178.546875 C 219.6875 179.011719 219.398438 179.5 219.144531 180.003906 C 219.078125 180.125 219.019531 180.25 218.960938 180.371094 C 218.550781 181.214844 218.21875 182.09375 217.960938 182.996094 C 217.867188 183.328125 217.78125 183.660156 217.707031 183.996094 C 217.589844 184.496094 207.128906 188.664062 198.359375 192.046875 C 196.027344 192.945312 193.828125 193.761719 191.992188 194.375 C 191.457031 194.554688 190.957031 194.71875 190.492188 194.875 C 189.484375 195.238281 188.4375 195.480469 187.371094 195.59375 C 186.867188 195.601562 186.367188 195.648438 185.871094 195.734375 C 181.839844 196.390625 174.933594 199.234375 174.175781 202.089844 C 174.117188 202.316406 174.097656 202.554688 174.128906 202.789062 C 174.128906 202.789062 174.128906 202.824219 174.128906 202.84375 C 174.628906 206.34375 171.128906 205.84375 171.128906 205.84375 C 171.128906 205.84375 169.882812 215.09375 168.132812 217.59375 C 166.871094 219.394531 166.003906 223.410156 165.894531 226.441406 C 165.832031 227.382812 165.90625 228.332031 166.117188 229.253906 C 166.117188 229.28125 166.117188 229.304688 166.117188 229.324219 C 166.316406 229.996094 165.835938 231.824219 165.019531 234.171875 C 164.136719 236.746094 162.847656 239.945312 161.609375 242.964844 C 159.742188 247.523438 157.984375 251.664062 157.875 252.574219 C 157.828125 252.980469 157.699219 253.703125 157.519531 254.640625 C 156.789062 258.449219 155.171875 265.703125 154.371094 268.640625 C 153.777344 270.828125 152.914062 273.828125 152.320312 275.890625 C 152.320312 275.949219 152.285156 276.011719 152.269531 276.066406 L 174.660156 275.84375 L 174.660156 276.265625 L 174.730469 276.265625 Z M 174.703125 276.265625 "/>
<use xlink:href="#surface56" mask="url(#mask17)"/>
<use xlink:href="#surface59" mask="url(#mask18)"/>
<use xlink:href="#surface62" mask="url(#mask19)"/>
<path style=" stroke:none;fill-rule:nonzero;fill:rgb(5.098039%,56.470588%,98.823529%);fill-opacity:1;" d="M 271.570312 181.371094 C 257.082031 184.039062 229.808594 183.464844 218.019531 183.058594 C 222.339844 167.558594 243.410156 172.828125 243.410156 172.828125 C 269.492188 167.621094 271.488281 178.429688 271.570312 181.371094 Z M 271.570312 181.371094 "/>
<path style=" stroke:none;fill-rule:nonzero;fill:rgb(98.431373%,74.509804%,74.509804%);fill-opacity:1;" d="M 348.464844 249.703125 C 348.464844 249.703125 365.527344 247.078125 365.863281 254.578125 C 366.199219 262.078125 357.160156 267.320312 357.160156 267.320312 Z M 348.464844 249.703125 "/>
<use xlink:href="#surface65" mask="url(#mask20)"/>
<path style=" stroke:none;fill-rule:nonzero;fill:rgb(24.705882%,23.921569%,33.72549%);fill-opacity:1;" d="M 236.363281 95.964844 C 234.917969 96.347656 233.375 96.023438 232.207031 95.089844 L 233.246094 96.535156 C 232.007812 96.679688 230.765625 96.265625 229.859375 95.410156 C 229.765625 96.703125 229.820312 98.003906 230.019531 99.285156 C 228.300781 99.367188 226.605469 98.835938 225.242188 97.785156 C 225.1875 98.707031 225.714844 99.570312 226.5625 99.941406 C 222.988281 99.511719 219.65625 101.804688 218.769531 105.296875 L 221.378906 105.535156 C 219.328125 105.972656 217.488281 107.097656 216.164062 108.71875 C 215.363281 109.71875 214.753906 111 215.101562 112.21875 C 215.453125 113.441406 217.140625 114.21875 218.058594 113.351562 C 215.414062 116.511719 214.296875 120.683594 215.011719 124.746094 C 215.25 125.601562 215.328125 126.492188 215.242188 127.375 C 215.078125 128.199219 214.558594 128.914062 214.300781 129.71875 C 213.800781 131.179688 214.273438 132.765625 214.71875 134.21875 L 217.0625 141.929688 C 217.910156 144.714844 218.753906 147.503906 219.863281 150.199219 C 220.648438 151.902344 221.316406 153.660156 221.863281 155.453125 C 222.492188 157.875 222.515625 160.523438 223.859375 162.640625 C 224.78125 163.972656 226.011719 165.058594 227.445312 165.804688 C 232.386719 168.636719 238.355469 169.234375 244.011719 168.554688 C 249.664062 167.875 255.089844 166 260.46875 164.140625 C 261.664062 163.78125 262.8125 163.277344 263.886719 162.640625 C 267.609375 160.199219 268.4375 155.210938 269.132812 150.816406 C 269.90625 145.914062 270.941406 141.023438 272.773438 136.414062 C 273.863281 133.671875 275.269531 130.886719 275.03125 127.945312 C 274.726562 124.039062 271.640625 120.875 270.875 117.035156 C 270.617188 115.75 270.628906 114.429688 270.910156 113.148438 C 271.148438 112.386719 271.277344 111.597656 271.304688 110.800781 C 271.21875 109.191406 269.902344 107.949219 268.660156 106.914062 C 265.972656 104.667969 263.199219 102.546875 260.339844 100.546875 C 260.195312 99.546875 261.554688 99.113281 262.167969 98.324219 C 263.035156 97.210938 262.136719 95.441406 260.820312 94.921875 C 259.5 94.398438 258.023438 94.738281 256.648438 95.085938 C 256.832031 93.640625 256.046875 92.246094 254.714844 91.65625 C 253.382812 91.066406 251.824219 91.421875 250.878906 92.53125 C 250.136719 90.824219 248.523438 89.660156 246.671875 89.488281 C 243.359375 89.230469 243.296875 91.765625 241.179688 93.160156 C 239.058594 94.554688 237.3125 92.714844 235.683594 91.375 C 235.074219 92.917969 235.332031 94.667969 236.363281 95.964844 Z M 236.363281 95.964844 "/>
<path style=" stroke:none;fill-rule:nonzero;fill:rgb(5.098039%,56.470588%,98.823529%);fill-opacity:1;" d="M 361.117188 264.703125 C 361.117188 264.703125 360.671875 265.765625 359.855469 267.300781 C 358.613281 269.660156 357.105469 271.871094 355.359375 273.886719 L 355.222656 274.03125 L 354.414062 274.03125 L 325.570312 274.296875 L 324.882812 274.296875 L 324.796875 274.195312 L 319.203125 267.550781 L 317.09375 265.046875 L 317.011719 264.941406 L 316.832031 264.730469 L 316.730469 264.609375 L 316.601562 264.453125 L 312.5 259.585938 L 314 253.335938 L 316.550781 242.804688 L 316.617188 242.550781 L 317.113281 240.550781 L 317.46875 239.050781 L 318.660156 234.160156 L 322.734375 217.335938 L 329.976562 221.085938 L 337.617188 234.585938 L 341.714844 241.835938 L 343.964844 241.835938 C 344.390625 241.835938 345.363281 242.65625 346.34375 243.601562 C 346.691406 243.933594 347.042969 244.289062 347.339844 244.601562 C 348.230469 245.519531 348.933594 246.308594 348.933594 246.308594 C 348.933594 246.308594 352.574219 246.390625 353.554688 249.261719 C 353.605469 249.398438 353.648438 249.539062 353.679688 249.683594 C 354.003906 250.8125 354.429688 251.910156 354.945312 252.964844 C 355.589844 254.371094 356.398438 255.964844 357.214844 257.558594 C 358.738281 260.484375 360.289062 263.269531 360.859375 264.28125 L 360.929688 264.40625 Z M 361.117188 264.703125 "/>
<use xlink:href="#surface68" mask="url(#mask21)"/>
<path style=" stroke:none;fill-rule:nonzero;fill:rgb(24.705882%,23.921569%,33.72549%);fill-opacity:1;" d="M 174.703125 276.265625 L 174.703125 275.84375 L 262.425781 274.890625 L 315.875 274.390625 L 316.027344 274.390625 L 316.027344 274.304688 L 316.527344 267.585938 L 316.742188 264.585938 L 317.558594 253.28125 L 318.203125 244.328125 L 318.203125 244.109375 C 318.234375 243.699219 318.214844 243.28125 318.148438 242.875 C 318.152344 242.859375 318.152344 242.839844 318.148438 242.824219 C 318.011719 241.980469 317.667969 241.183594 317.148438 240.503906 C 316.03125 239.070312 314.253906 238.3125 312.445312 238.503906 C 306.394531 239.125 300.285156 239.621094 294.171875 240.003906 C 293.339844 240.066406 292.503906 240.113281 291.675781 240.160156 C 252.242188 242.503906 213.164062 240.605469 192.019531 239.160156 L 190.523438 239.050781 C 186.859375 238.789062 183.796875 238.550781 181.441406 238.34375 C 178.753906 238.117188 176.332031 239.960938 175.824219 242.609375 C 175.777344 242.878906 175.746094 243.15625 175.734375 243.429688 L 175.394531 254.511719 L 174.933594 268.546875 L 174.710938 275.726562 L 174.710938 276.285156 Z M 174.703125 276.265625 "/>
<use xlink:href="#surface71" mask="url(#mask22)"/>
<use xlink:href="#surface74" mask="url(#mask23)"/>
<path style=" stroke:none;fill-rule:nonzero;fill:rgb(24.705882%,23.921569%,33.72549%);fill-opacity:1;" d="M 149.15625 257.785156 L 123.058594 258.285156 L 123.058594 253.949219 L 149.15625 253.449219 Z M 149.15625 257.785156 "/>
<use xlink:href="#surface77" mask="url(#mask24)"/>
<path style=" stroke:none;fill-rule:nonzero;fill:rgb(24.705882%,23.921569%,33.72549%);fill-opacity:1;" d="M 150.15625 257.785156 L 124.054688 258.285156 L 124.054688 253.949219 L 150.15625 253.449219 Z M 150.15625 257.785156 "/>
<use xlink:href="#surface80" mask="url(#mask25)"/>
<use xlink:href="#surface83" mask="url(#mask26)"/>
<use xlink:href="#surface86" mask="url(#mask27)"/>
<path style="fill:none;stroke-width:2;stroke-linecap:butt;stroke-linejoin:miter;stroke:rgb(5.098039%,56.470588%,98.823529%);stroke-opacity:1;stroke-miterlimit:10;" d="M 198.988026 342.859375 L 300.601262 341.859375 " transform="matrix(0.49952,0,0,0.5,0,0)"/>
<path style="fill:none;stroke-width:2;stroke-linecap:butt;stroke-linejoin:miter;stroke:rgb(5.098039%,56.470588%,98.823529%);stroke-opacity:1;stroke-miterlimit:10;" d="M 198.988026 355.328125 L 300.601262 354.34375 " transform="matrix(0.49952,0,0,0.5,0,0)"/>
<path style="fill:none;stroke-width:2;stroke-linecap:butt;stroke-linejoin:miter;stroke:rgb(5.098039%,56.470588%,98.823529%);stroke-opacity:1;stroke-miterlimit:10;" d="M 198.988026 367.8125 L 300.601262 366.8125 " transform="matrix(0.49952,0,0,0.5,0,0)"/>
</g>
</svg>
